<svg xmlns="http://www.w3.org/2000/svg" viewBox="1095.867 36 24.901 24.901">
  <defs>
    <style>
      .cls-1 {
        fill: #009ade;
      }
    </style>
  </defs>
  <g id="boton-de-logo-del-twitter" transform="translate(1095.867 36)">
    <g id="Group_9" data-name="Group 9">
      <path id="Path_16" data-name="Path 16" class="cls-1" d="M12.451,0A12.451,12.451,0,1,0,24.9,12.451,12.465,12.465,0,0,0,12.451,0ZM18,9.6c.006.123.009.248.009.372A8.152,8.152,0,0,1,5.466,16.839a5.786,5.786,0,0,0,4.243-1.187,2.869,2.869,0,0,1-2.677-1.991,2.877,2.877,0,0,0,1.294-.048,2.866,2.866,0,0,1-2.3-2.81c0-.012,0-.025,0-.036a2.854,2.854,0,0,0,1.3.358A2.87,2.87,0,0,1,6.439,7.3a8.137,8.137,0,0,0,5.906,3A2.868,2.868,0,0,1,17.228,7.68a5.72,5.72,0,0,0,1.82-.7A2.878,2.878,0,0,1,17.787,8.57a5.7,5.7,0,0,0,1.646-.451A5.764,5.764,0,0,1,18,9.6Z"/>
    </g>
  </g>
</svg>
