<?xml version="1.0" encoding="utf-8"?>
<!-- Generator: Adobe Illustrator 22.0.1, SVG Export Plug-In . SVG Version: 6.00 Build 0)  -->
<svg version="1.1" id="Layer_1" xmlns="http://www.w3.org/2000/svg" xmlns:xlink="http://www.w3.org/1999/xlink" x="0px" y="0px"
	 viewBox="0 0 235.6 73.5" style="enable-background:new 0 0 235.6 73.5;" xml:space="preserve">
<style type="text/css">
	.st0{fill:#0F218A;}
	.st1{fill:#009DE1;}
</style>
<rect x="78.1" y="4.9" class="st0" width="26.3" height="13.8"/>
<polygon class="st1" points="0,19 39.5,38.7 0,58.4 "/>
<rect x="78.1" y="32" class="st0" width="26.3" height="13.8"/>
<rect x="78.1" y="58.7" class="st0" width="26.3" height="14"/>
<rect x="56.4" y="4.7" class="st0" width="12.9" height="67.9"/>
<rect x="121.4" y="4.9" class="st0" width="12.9" height="67.9"/>
<path class="st0" d="M170.2,25.4c0-11.2-9.1-20.3-20.3-20.3l0,0h-6.8v13.5h6.8l0,0c3.7,0,6.6,3,6.6,6.7s-3,6.7-6.6,6.7l0,0h-6.8
	v13.6h6.9C161.2,45.6,170.2,36.6,170.2,25.4"/>
<polygon class="st0" points="185.3,24.9 193.1,40.3 176.9,72.8 161.9,72.8 "/>
<polygon class="st0" points="234.2,72.8 197.8,-0.1 190.4,14.9 205.8,45.8 200.3,45.8 193.6,58.9 212.3,58.9 219.2,72.8 "/>
</svg>
